<?xml version="1.0" encoding="UTF-8" standalone="no"?>
<!-- Created with Inkscape (http://www.inkscape.org/) -->

<svg
   xmlns:dc="http://purl.org/dc/elements/1.1/"
   xmlns:cc="http://creativecommons.org/ns#"
   xmlns:rdf="http://www.w3.org/1999/02/22-rdf-syntax-ns#"
   xmlns:svg="http://www.w3.org/2000/svg"
   xmlns="http://www.w3.org/2000/svg"
   xmlns:sodipodi="http://sodipodi.sourceforge.net/DTD/sodipodi-0.dtd"
   xmlns:inkscape="http://www.inkscape.org/namespaces/inkscape"
   width="64px"
   height="64px"
   id="svg3848"
   version="1.1"
   inkscape:version="0.48.3.1 r9886"
   sodipodi:docname="dojogama_bw_64_64_vector.svg"
   inkscape:export-filename="/home/tiago/Dropbox/Projetos/DojoGamaIcon/dojogama_256_256.png"
   inkscape:export-xdpi="360"
   inkscape:export-ydpi="360">
  <defs
     id="defs3850" />
  <sodipodi:namedview
     id="base"
     pagecolor="#ffffff"
     bordercolor="#666666"
     borderopacity="1.0"
     inkscape:pageopacity="0.0"
     inkscape:pageshadow="2"
     inkscape:zoom="7.7781745"
     inkscape:cx="12.191676"
     inkscape:cy="27.170579"
     inkscape:current-layer="layer2"
     showgrid="false"
     inkscape:document-units="px"
     inkscape:grid-bbox="true"
     inkscape:snap-global="true"
     inkscape:window-width="1600"
     inkscape:window-height="824"
     inkscape:window-x="0"
     inkscape:window-y="24"
     inkscape:window-maximized="1"
     inkscape:snap-grids="true"
     inkscape:snap-to-guides="false">
    <inkscape:grid
       type="xygrid"
       id="grid3889" />
  </sodipodi:namedview>
  <metadata
     id="metadata3853">
    <rdf:RDF>
      <cc:Work
         rdf:about="">
        <dc:format>image/svg+xml</dc:format>
        <dc:type
           rdf:resource="http://purl.org/dc/dcmitype/StillImage" />
        <dc:title />
      </cc:Work>
    </rdf:RDF>
  </metadata>
  <g
     id="layer1"
     inkscape:label="Layer 1"
     inkscape:groupmode="layer"
     style="display:inline">
    <path
       style="fill:#333333;fill-opacity:1;stroke:#333333;stroke-width:1.5;stroke-linecap:butt;stroke-linejoin:miter;stroke-miterlimit:4;stroke-opacity:1;stroke-dasharray:none"
       d="M 32.4375 1.0625 C 32.4375 1.0625 40.913991 7.032545 36.25 8.53125 C 31.58601 10.029955 23.934048 8.171306 21.3125 12.84375 C 19.834216 15.478531 24.403689 19.05136 28.6875 21.6875 L 31.34375 21.6875 C 28.476368 18.839365 25.286054 15.125233 26.875 13.96875 C 30.075594 11.639262 43.306267 15.190108 42.34375 8.96875 C 41.381234 2.7473921 32.4375 1.0625 32.4375 1.0625 z "
       id="path3784" />
    <path
       style="fill:#333333;fill-opacity:1;stroke:#333333;stroke-width:1.5;stroke-linecap:butt;stroke-linejoin:miter;stroke-miterlimit:4;stroke-opacity:1;stroke-dasharray:none"
       d="M 50.84375 2.125 C 50.84375 2.125 57.569205 8.842839 52.65625 12.125 C 47.743295 15.407163 40.321763 10.640104 35.6875 14.4375 C 33.862085 15.933277 33.320164 18.716947 33.3125 21.5625 L 36.625 21.5625 C 37.737352 19.295292 39.416856 17.571867 42.0625 17.9375 C 46.222844 18.512467 56.105916 19.347316 58.6875 12.71875 C 61.269084 6.0901864 50.84375 2.125 50.84375 2.125 z M 34.21875 29.03125 C 34.409065 29.85225 34.59375 30.4375 34.59375 30.4375 C 34.59375 30.4375 34.637055 29.831751 34.71875 29.03125 L 34.21875 29.03125 z "
       id="path3782" />
  </g>
  <g
     inkscape:groupmode="layer"
     id="layer2"
     inkscape:label="corpo"
     style="display:inline">
    <rect
       style="fill:none;stroke:#333333;stroke-width:1.5;stroke-miterlimit:4;stroke-opacity:1;stroke-dasharray:none;display:inline"
       id="rect3770"
       width="47"
       height="41.314018"
       x="9.636364"
       y="21.831171"
       ry="5.0661402"
       inkscape:export-filename="/home/tiago/Dropbox/Projetos/path3057.png"
       inkscape:export-xdpi="24.664829"
       inkscape:export-ydpi="24.664829" />
    <rect
       style="fill:#333333;fill-opacity:1;stroke:#333333;stroke-width:1.5;stroke-miterlimit:4;stroke-opacity:1;stroke-dasharray:none;display:inline"
       id="rect3774"
       width="46.477291"
       height="7.1509194"
       x="9.886364"
       y="27.319305"
       inkscape:export-filename="/home/tiago/Dropbox/Projetos/path3057.png"
       inkscape:export-xdpi="24.664829"
       inkscape:export-ydpi="24.664829" />
    <path
       inkscape:connector-curvature="0"
       id="path3055"
       d="m 23.925392,48.002739 c -3.739344,0 -6.770682,-3.031342 -6.770682,-6.770693 0,-1.837768 0.741053,-3.502609 1.929636,-4.722555 l 9.35202,9.766722 c -1.197663,1.071235 -2.777683,1.726526 -4.510974,1.726526 z"
       style="fill:#333333;fill-opacity:1;stroke:#333333;stroke-width:1.5;stroke-miterlimit:4;stroke-opacity:1;stroke-dasharray:none;display:inline"
       inkscape:export-filename="/home/tiago/Dropbox/Projetos/path3057.png"
       inkscape:export-xdpi="24.664829"
       inkscape:export-ydpi="24.664829" />
    <path
       style="fill:#333333;fill-opacity:1;stroke:#333333;stroke-width:1.5;stroke-miterlimit:4;stroke-opacity:1;stroke-dasharray:none;display:inline"
       d="m 42.345683,48.006193 c 3.739344,0 6.770692,-3.031341 6.770692,-6.770692 0,-1.837776 -0.741052,-3.502621 -1.92965,-4.722555 l -9.352018,9.766719 c 1.197661,1.071235 2.777684,1.726528 4.510976,1.726528 z"
       id="path3057"
       inkscape:connector-curvature="0"
       inkscape:export-xdpi="24.664829"
       inkscape:export-ydpi="24.664829" />
  </g>
</svg>
